#N canvas 138 107 1082 648 10;
#X text 139 -348 freq_1;
#X floatatom 142 -329 5 0 0 0 - - -, f 5;
#X floatatom 153 -235 5 0 0 0 - - -, f 5;
#X obj 141 -369 + 0;
#X obj 146 -406 inlet;
#X text 148 -425 Freq;
#X obj 57 189 outlet~;
#X obj 443 -357 inlet;
#X obj 486 -355 inlet;
#X obj 176 -259 expr ($f1*$f2) + $f3;
#X obj 89 -303 cycle~;
#X obj 53 -61 cycle~;
#X text 402 -380 ADSR;
#X text 450 -376 Fm;
#X text 483 -374 vibrato;
#X text 537 -375 MI;
#X obj 530 -354 inlet;
#X obj 322 -137 * 1;
#X obj 278 -72 + 1;
#X floatatom 355 -175 5 0 0 0 - - -, f 5;
#X floatatom 287 -173 5 0 0 0 - - -, f 5;
#X floatatom 243 -96 5 0 0 0 - - -, f 5;
#X floatatom 454 -115 5 0 0 0 - - -, f 5;
#X floatatom 278 -44 5 0 0 0 - - -, f 5;
#X obj 392 -142 bng 15 250 50 0 empty empty empty 17 7 0 10 -262144
-1 -1;
#X obj 323 -106 bng 15 250 50 0 empty empty empty 17 7 0 10 -262144
-1 -1;
#X obj 40 157 *~;
#X obj 596 -118 pack 0 10;
#X obj 402 -357 inlet;
#X obj 604 -76 vline~;
#X obj 659 -219 pack 0 10;
#X obj 673 -146 vline~;
#X obj 143 -275 *~;
#X obj 235 -60 sig~;
#X obj 234 -4 +~;
#X obj 453 -90 pack 0 10;
#X obj 461 -48 vline~;
#X obj 418 -198 line;
#X obj 404 -246 pack 0 500;
#X connect 1 0 10 0;
#X connect 3 0 1 0;
#X connect 4 0 3 0;
#X connect 4 0 9 0;
#X connect 4 0 20 0;
#X connect 7 0 9 1;
#X connect 7 0 38 0;
#X connect 8 0 9 2;
#X connect 8 0 22 0;
#X connect 9 0 2 0;
#X connect 10 0 32 0;
#X connect 11 0 26 0;
#X connect 16 0 30 0;
#X connect 17 0 21 0;
#X connect 18 0 23 0;
#X connect 19 0 17 1;
#X connect 19 0 24 0;
#X connect 20 0 17 0;
#X connect 21 0 18 0;
#X connect 21 0 33 0;
#X connect 22 0 18 1;
#X connect 22 0 25 0;
#X connect 22 0 35 0;
#X connect 24 0 20 0;
#X connect 25 0 21 0;
#X connect 26 0 6 0;
#X connect 27 0 29 0;
#X connect 28 0 27 0;
#X connect 29 0 26 1;
#X connect 30 0 31 0;
#X connect 31 0 32 1;
#X connect 32 0 11 1;
#X connect 33 0 34 0;
#X connect 34 0 11 0;
#X connect 35 0 36 0;
#X connect 36 0 34 1;
#X connect 37 0 19 0;
#X connect 38 0 37 0;
