#N canvas 50 32 1306 672 10;
#X obj 465 610 cool-FM-MG;
#X floatatom 593 415 5 0 0 0 - - -, f 5;
#X obj 14 93 vsl 15 128 0 3 0 0 empty empty empty 0 -9 0 10 -262144
-1 -1 3033 1;
#X floatatom 13 239 5 0 0 0 - - -, f 5;
#X obj 432 796 dac~;
#X obj 433 765 *~ 1;
#X obj 547 638 vsl 15 128 0 1 0 0 empty empty empty 0 -9 0 10 -262144
-1 -1 9500 1;
#X obj 323 61 r L0;
#X obj 254 32 r L1;
#X obj 184 55 r L2;
#X obj 124 51 r L3;
#X obj 53 55 r L4;
#X obj 616 117 r R0;
#X obj 459 55 r R1;
#X obj 530 52 r R2;
#X obj 384 53 r R3;
#X obj 648 11 r R4;
#X obj 658 75 r roll;
#X obj 705 77 r pitch;
#X obj 760 77 r yaw;
#X obj 809 78 r ax;
#X obj 845 78 r ay;
#X obj 877 79 r az;
#X floatatom 323 94 5 0 0 0 - - -, f 5;
#X floatatom 255 66 5 0 0 0 - - -, f 5;
#X floatatom 188 90 5 0 0 0 - - -, f 5;
#X floatatom 124 87 5 0 0 0 - - -, f 5;
#X floatatom 56 92 5 0 0 0 - - -, f 5;
#X floatatom 616 153 5 0 0 0 - - -, f 5;
#X floatatom 459 90 5 0 0 0 - - -, f 5;
#X floatatom 531 89 5 0 0 0 - - -, f 5;
#X floatatom 389 91 5 0 0 0 - - -, f 5;
#X floatatom 660 51 5 0 0 0 - - -, f 5;
#X floatatom 672 116 5 0 0 0 - - -, f 5;
#X floatatom 714 117 5 0 0 0 - - -, f 5;
#X floatatom 762 113 5 0 0 0 - - -, f 5;
#X floatatom 804 114 5 0 0 0 - - -, f 5;
#X floatatom 845 114 5 0 0 0 - - -, f 5;
#X floatatom 887 115 5 0 0 0 - - -, f 5;
#X obj 946 105 serial_print_extended;
#X obj 945 130 send;
#X msg 923 57 devices;
#X msg 1047 31 close;
#X msg 973 4 open 1;
#X obj 951 83 comport 1 115200;
#X obj 103 613 cool-FM-MG;
#X msg 68 465 130.8;
#X obj 248 612 cool-FM-MG;
#X msg 230 419 164.8;
#X obj 218 658 +~;
#X obj 219 685 +~;
#X obj 38 9 loadbang;
#X msg 10 63 2.204;
#X floatatom 690 550 5 0 0 0 - - -, f 5;
#X obj 119 168 vsl 15 128 0 1 0 0 empty empty empty 0 -9 0 10 -262144
-1 -1 0 1;
#X obj 187 170 vsl 15 128 0 1 0 0 empty empty empty 0 -9 0 10 -262144
-1 -1 0 1;
#X obj 252 169 vsl 15 128 0 1 0 0 empty empty empty 0 -9 0 10 -262144
-1 -1 0 1;
#X obj 536 606 cool-FM-MG;
#X obj 176 612 cool-FM-MG;
#X text 465 507 A;
#X text 120 308 C, f 2;
#X text 256 305 E;
#X text 524 307 B;
#X msg 166 453 146.8;
#X text 187 306 D, f 4;
#X obj 325 169 vsl 15 128 0 1 0 0 empty empty empty 0 -9 0 10 -262144
-1 -1 0 1;
#X obj 56 170 vsl 15 128 0 1 0 0 empty empty empty 0 -9 0 10 -262144
-1 -1 0 1;
#X obj 219 712 +~;
#X obj 218 739 +~;
#X floatatom 743 207 5 0 0 0 - - -, f 5;
#X obj 711 156 * 2.5;
#X obj 252 143 * 1.5;
#X floatatom 803 412 5 0 0 0 - - -, f 5;
#X obj 56 116 * 0.00127;
#X obj 56 142 - 0.3;
#X obj 252 91 * 0.00127;
#X obj 252 117 - 0.3;
#X obj 122 116 * 0.00127;
#X obj 122 142 - 0.3;
#X obj 187 117 * 0.00127;
#X obj 187 143 - 0.3;
#X obj 323 138 - 0.6;
#X obj 389 173 vsl 15 128 0 1 0 0 empty empty empty 0 -9 0 10 -262144
-1 -1 0 1;
#X obj 321 611 cool-FM-MG;
#X msg 289 349 174.61;
#X text 328 305 F;
#X obj 393 610 cool-FM-MG;
#X text 396 305 G, f 4;
#X msg 376 405 196;
#X obj 458 172 vsl 15 128 0 1 0 0 empty empty empty 0 -9 0 10 -262144
-1 -1 0 1;
#X obj 526 116 * 0.00127;
#X obj 526 142 - 0.3;
#X obj 526 170 vsl 15 128 0 1 0 0 empty empty empty 0 -9 0 10 -262144
-1 -1 0 1;
#X text 456 310 A;
#X obj 220 765 +~;
#X obj 219 791 +~;
#X msg 442 406 220;
#X msg 509 410 246.94;
#X floatatom 919 411 5 0 0 0 - - -, f 5;
#X floatatom 931 462 5 0 0 0 - - -, f 5;
#X obj 917 483 change;
#X obj 916 507 sel 1;
#X floatatom 925 596 5 0 0 0 - - -, f 5;
#X obj 537 554 *;
#X obj 463 555 *;
#X obj 392 560 *;
#X obj 320 559 *;
#X obj 248 555 *;
#X obj 171 557 *;
#X obj 103 559 *;
#X obj 929 623 *;
#X obj 458 116 * 0.00117;
#X obj 389 117 * 0.00127;
#X obj 389 143 - 0.3;
#X obj 458 142 - 0.4;
#X obj 323 114 * 0.00127;
#X obj 986 192 change;
#X floatatom 1045 224 5 0 0 0 - - -, f 5;
#X obj 987 170 < 0;
#X obj 990 226 * 2;
#X obj 913 563 + 1;
#X obj 655 456 line;
#X obj 916 533 tgl 15 0 empty empty empty 17 7 0 10 -262144 -1 -1 0
1;
#X obj 805 480 pack 0 500;
#X obj 918 438 > 0.6;
#X msg 721 304 164.8;
#X msg 646 304 146.8;
#X msg 763 303 174.61;
#X msg 834 306 196;
#X msg 903 305 220;
#X msg 972 304 246.94;
#X msg 567 302 130.8;
#X msg 606 281 138.59;
#X msg 684 284 155.56;
#X msg 810 286 185;
#X msg 861 285 207.65;
#X msg 929 284 233.08;
#X obj 1037 355 r pitch_r;
#X floatatom 1037 379 5 0 0 0 - - -, f 5;
#X obj 1041 420 < 22.5;
#X floatatom 1043 456 5 0 0 0 - - -, f 5;
#X obj 1096 460 &&;
#X obj 1092 421 > 22.5;
#X obj 1140 426 < 45;
#X floatatom 1095 489 5 0 0 0 - - -, f 5;
#X obj 573 355 bng 15 250 50 0 empty empty empty 17 7 0 10 -262144
-1 -1;
#X connect 0 0 94 1;
#X connect 1 0 0 2;
#X connect 1 0 86 2;
#X connect 1 0 45 2;
#X connect 1 0 47 2;
#X connect 1 0 57 2;
#X connect 1 0 58 2;
#X connect 1 0 83 2;
#X connect 2 0 3 0;
#X connect 2 0 0 3;
#X connect 2 0 86 3;
#X connect 2 0 45 3;
#X connect 2 0 47 3;
#X connect 2 0 57 3;
#X connect 2 0 58 3;
#X connect 2 0 83 3;
#X connect 5 0 4 0;
#X connect 5 0 4 1;
#X connect 6 0 5 1;
#X connect 7 0 23 0;
#X connect 8 0 24 0;
#X connect 9 0 25 0;
#X connect 10 0 26 0;
#X connect 11 0 27 0;
#X connect 12 0 28 0;
#X connect 13 0 29 0;
#X connect 14 0 30 0;
#X connect 15 0 31 0;
#X connect 16 0 32 0;
#X connect 17 0 33 0;
#X connect 18 0 34 0;
#X connect 19 0 35 0;
#X connect 20 0 36 0;
#X connect 21 0 37 0;
#X connect 22 0 38 0;
#X connect 23 0 115 0;
#X connect 24 0 75 0;
#X connect 25 0 79 0;
#X connect 26 0 77 0;
#X connect 27 0 73 0;
#X connect 29 0 111 0;
#X connect 30 0 90 0;
#X connect 31 0 112 0;
#X connect 33 0 53 0;
#X connect 34 0 70 0;
#X connect 36 0 98 0;
#X connect 38 0 118 0;
#X connect 39 0 40 0;
#X connect 39 1 40 1;
#X connect 41 0 44 0;
#X connect 42 0 44 0;
#X connect 43 0 44 0;
#X connect 44 0 39 0;
#X connect 45 0 49 0;
#X connect 46 0 109 1;
#X connect 47 0 50 1;
#X connect 48 0 107 1;
#X connect 49 0 50 0;
#X connect 50 0 67 0;
#X connect 51 0 52 0;
#X connect 51 0 96 0;
#X connect 51 0 46 0;
#X connect 51 0 48 0;
#X connect 51 0 63 0;
#X connect 51 0 97 0;
#X connect 51 0 84 0;
#X connect 51 0 88 0;
#X connect 52 0 2 0;
#X connect 53 0 0 4;
#X connect 53 0 86 4;
#X connect 53 0 45 4;
#X connect 53 0 47 4;
#X connect 53 0 57 4;
#X connect 53 0 58 4;
#X connect 53 0 83 4;
#X connect 54 0 45 1;
#X connect 55 0 58 1;
#X connect 56 0 47 1;
#X connect 57 0 95 1;
#X connect 58 0 49 1;
#X connect 63 0 108 1;
#X connect 65 0 83 1;
#X connect 67 0 68 0;
#X connect 68 0 94 0;
#X connect 69 0 2 0;
#X connect 70 0 69 0;
#X connect 71 0 56 0;
#X connect 73 0 74 0;
#X connect 74 0 66 0;
#X connect 75 0 76 0;
#X connect 76 0 71 0;
#X connect 77 0 78 0;
#X connect 78 0 54 0;
#X connect 79 0 80 0;
#X connect 80 0 55 0;
#X connect 81 0 65 0;
#X connect 82 0 86 1;
#X connect 83 0 67 1;
#X connect 84 0 106 1;
#X connect 86 0 68 1;
#X connect 88 0 105 1;
#X connect 89 0 0 1;
#X connect 90 0 91 0;
#X connect 91 0 89 0;
#X connect 92 0 57 1;
#X connect 94 0 95 0;
#X connect 95 0 5 0;
#X connect 96 0 104 1;
#X connect 97 0 103 1;
#X connect 98 0 124 0;
#X connect 100 0 101 0;
#X connect 101 0 122 0;
#X connect 103 0 57 0;
#X connect 104 0 0 0;
#X connect 105 0 86 0;
#X connect 106 0 83 0;
#X connect 107 0 47 0;
#X connect 108 0 58 0;
#X connect 109 0 45 0;
#X connect 111 0 114 0;
#X connect 112 0 113 0;
#X connect 113 0 92 0;
#X connect 114 0 82 0;
#X connect 115 0 81 0;
#X connect 116 0 117 0;
#X connect 116 0 119 0;
#X connect 118 0 116 0;
#X connect 119 0 1 0;
#X connect 120 0 102 0;
#X connect 120 0 123 0;
#X connect 121 0 109 0;
#X connect 121 0 108 0;
#X connect 121 0 107 0;
#X connect 121 0 106 0;
#X connect 121 0 105 0;
#X connect 121 0 104 0;
#X connect 121 0 103 0;
#X connect 122 0 120 0;
#X connect 123 0 121 0;
#X connect 124 0 100 0;
#X connect 124 0 99 0;
#X connect 137 0 138 0;
#X connect 138 0 139 0;
#X connect 138 0 142 0;
#X connect 138 0 143 0;
#X connect 139 0 140 0;
#X connect 141 0 144 0;
#X connect 142 0 141 0;
#X connect 143 0 141 1;
