#N canvas 425 50 1440 672 10;
#X floatatom 745 215 5 0 0 0 - - -, f 5;
#X obj 648 237 vsl 15 128 0 3 0 0 empty empty empty 0 -9 0 10 -262144
-1 -1 9330 1;
#X floatatom 646 386 5 0 0 0 - - -, f 5;
#X obj 101 565 dac~;
#X obj 101 515 *~ 1;
#X obj 321 458 vsl 15 128 0 1 0 0 empty empty empty 0 -9 0 10 -262144
-1 -1 0 1;
#X obj 274 41 r L0;
#X obj 205 12 r L1;
#X obj 135 35 r L2;
#X obj 75 31 r L3;
#X obj 4 35 r L4;
#X obj 520 119 r R0;
#X obj 343 32 r R1;
#X obj 414 29 r R2;
#X obj 474 29 r R3;
#X obj 552 13 r R4;
#X obj 562 77 r roll;
#X obj 609 79 r pitch;
#X obj 817 179 r yaw;
#X obj 670 77 r ax;
#X obj 706 77 r ay;
#X obj 738 78 r az;
#X floatatom 274 74 5 0 0 0 - - -, f 5;
#X floatatom 206 46 5 0 0 0 - - -, f 5;
#X floatatom 139 70 5 0 0 0 - - -, f 5;
#X floatatom 75 67 5 0 0 0 - - -, f 5;
#X floatatom 7 72 5 0 0 0 - - -, f 5;
#X floatatom 520 155 5 0 0 0 - - -, f 5;
#X floatatom 343 67 5 0 0 0 - - -, f 5;
#X floatatom 415 66 5 0 0 0 - - -, f 5;
#X floatatom 479 67 5 0 0 0 - - -, f 5;
#X floatatom 564 53 5 0 0 0 - - -, f 5;
#X floatatom 576 118 5 0 0 0 - - -, f 5;
#X floatatom 618 119 5 0 0 0 - - -, f 5;
#X floatatom 819 215 5 0 0 0 - - -, f 5;
#X floatatom 665 113 5 0 0 0 - - -, f 5;
#X floatatom 706 113 5 0 0 0 - - -, f 5;
#X floatatom 748 114 5 0 0 0 - - -, f 5;
#X obj 797 119 serial_print_extended;
#X obj 796 144 send;
#X msg 774 71 devices;
#X msg 898 45 close;
#X msg 824 18 open 1;
#X obj 802 97 comport 1 115200;
#X obj 1626 38 loadbang;
#X msg 621 210 2.204;
#X floatatom 570 172 5 0 0 0 - - -, f 5;
#X obj 70 205 vsl 15 128 0 3 0 0 empty empty empty 0 -9 0 10 -262144
-1 -1 0 1;
#X obj 138 207 vsl 15 128 0 3 0 0 empty empty empty 0 -9 0 10 -262144
-1 -1 0 1;
#X obj 203 206 vsl 15 128 0 3 0 0 empty empty empty 0 -9 0 10 -262144
-1 -1 0 1;
#X obj 262 202 vsl 15 128 0 3 0 0 empty empty empty 0 -9 0 10 -262144
-1 -1 0 1;
#X obj 7 150 vsl 15 128 0 1 0 0 empty empty empty 0 -9 0 10 -262144
-1 -1 0 1;
#X floatatom 615 185 5 0 0 0 - - -, f 5;
#X obj 615 158 * 2.5;
#X obj 203 123 * 1.5;
#X obj 7 96 * 0.00127;
#X obj 7 122 - 0.3;
#X obj 203 71 * 0.00127;
#X obj 203 97 - 0.3;
#X obj 73 96 * 0.00127;
#X obj 73 122 - 0.3;
#X obj 138 97 * 0.00127;
#X obj 138 123 - 0.3;
#X obj 274 118 - 0.6;
#X obj 357 151 vsl 15 128 0 3 0 0 empty empty empty 0 -9 0 10 -262144
-1 -1 0 1;
#X obj 421 152 vsl 15 128 0 3 0 0 empty empty empty 0 -9 0 10 -262144
-1 -1 0 1;
#X obj 480 153 vsl 15 128 0 3 0 0 empty empty empty 0 -9 0 10 -262144
-1 -1 0 1;
#X floatatom 669 172 5 0 0 0 - - -, f 5;
#X obj 274 94 * 0.00127;
#X obj 747 162 change;
#X floatatom 772 188 5 0 0 0 - - -, f 5;
#X obj 748 139 < 0;
#X obj 747 187 * 2;
#X obj 663 136 > 0.6;
#X obj 742 407 r pitch_r;
#N canvas 65 42 971 637 octave_change 0;
#X floatatom 66 70 5 0 0 0 - - -, f 5;
#X floatatom 12 155 5 0 0 0 - - -, f 5;
#X floatatom 61 153 5 0 0 0 - - -, f 5;
#X obj 12 243 bng 15 250 50 0 empty empty empty 17 7 0 10 -262144 -1
-1;
#X obj 19 209 sel 1;
#X obj 16 183 change;
#X obj 67 210 sel 1;
#X obj 65 185 change;
#X obj 79 238 bng 15 250 50 0 empty empty empty 17 7 0 10 -262144 -1
-1;
#X floatatom 191 170 5 0 0 0 - - -, f 5;
#X obj 197 227 sel 1;
#X obj 195 202 change;
#X obj 209 255 bng 15 250 50 0 empty empty empty 17 7 0 10 -262144
-1 -1;
#X floatatom 296 158 5 0 0 0 - - -, f 5;
#X obj 299 215 sel 1;
#X obj 297 190 change;
#X obj 314 243 bng 15 250 50 0 empty empty empty 17 7 0 10 -262144
-1 -1;
#X obj 131 38 inlet;
#X obj 81 512 outlet;
#X obj 232 517 outlet;
#X obj 369 510 outlet;
#X floatatom 423 155 5 0 0 0 - - -, f 5;
#X obj 429 212 sel 1;
#X obj 427 187 change;
#X obj 441 240 bng 15 250 50 0 empty empty empty 17 7 0 10 -262144
-1 -1;
#X floatatom 550 162 5 0 0 0 - - -, f 5;
#X obj 556 219 sel 1;
#X obj 554 194 change;
#X obj 568 247 bng 15 250 50 0 empty empty empty 17 7 0 10 -262144
-1 -1;
#X floatatom 682 165 5 0 0 0 - - -, f 5;
#X obj 688 222 sel 1;
#X obj 686 197 change;
#X obj 700 250 bng 15 250 50 0 empty empty empty 17 7 0 10 -262144
-1 -1;
#X floatatom 833 171 5 0 0 0 - - -, f 5;
#X obj 839 228 sel 1;
#X obj 837 203 change;
#X obj 851 256 bng 15 250 50 0 empty empty empty 17 7 0 10 -262144
-1 -1;
#X msg 210 411 164.8;
#X msg 135 411 146.8;
#X msg 252 410 174.61;
#X msg 323 413 196;
#X msg 392 412 220;
#X msg 461 411 246.94;
#X msg 56 409 130.8;
#X msg 95 388 138.59;
#X msg 173 391 155.56;
#X msg 299 393 185;
#X msg 350 392 207.65;
#X msg 418 391 233.08;
#X msg 528 411 261.63;
#X msg 573 390 277.18;
#X msg 613 413 293.66;
#X msg 651 393 311.13;
#X msg 688 413 329.63;
#X msg 730 412 349.23;
#X msg 777 395 369.99;
#X msg 824 415 392;
#X msg 852 394 415.3;
#X msg 894 414 440;
#X msg 920 393 466.16;
#X msg 963 413 493.88;
#X obj 52 125 expr ($f1 > 22.5) && ($f1 < 45);
#X obj 1 103 expr $f1 < 22.5;
#X obj 201 105 expr ($f1 > 45) && ($f1 < 67.5);
#X obj 316 126 expr ($f1 > 67.5) && ($f1 < 90);
#X obj 431 106 expr ($f1 > 90) && ($f1 < 112.5);
#X obj 560 127 expr ($f1 > 112.5) && ($f1 < 135);
#X obj 684 104 expr ($f1 > 135) && ($f1 < 157.5);
#X obj 835 133 expr $f1 > 157.5;
#X obj 494 543 outlet;
#X connect 0 0 61 0;
#X connect 0 0 62 0;
#X connect 0 0 63 0;
#X connect 0 0 64 0;
#X connect 0 0 65 0;
#X connect 0 0 66 0;
#X connect 0 0 67 0;
#X connect 0 0 68 0;
#X connect 1 0 5 0;
#X connect 2 0 7 0;
#X connect 3 0 69 0;
#X connect 4 0 3 0;
#X connect 4 0 44 0;
#X connect 4 0 38 0;
#X connect 4 0 43 0;
#X connect 5 0 4 0;
#X connect 6 0 8 0;
#X connect 6 0 45 0;
#X connect 6 0 39 0;
#X connect 6 0 37 0;
#X connect 7 0 6 0;
#X connect 8 0 69 0;
#X connect 9 0 11 0;
#X connect 10 0 12 0;
#X connect 10 0 46 0;
#X connect 10 0 47 0;
#X connect 10 0 40 0;
#X connect 11 0 10 0;
#X connect 12 0 69 0;
#X connect 13 0 15 0;
#X connect 14 0 16 0;
#X connect 14 0 48 0;
#X connect 14 0 42 0;
#X connect 14 0 41 0;
#X connect 15 0 14 0;
#X connect 16 0 69 0;
#X connect 17 0 0 0;
#X connect 21 0 23 0;
#X connect 22 0 24 0;
#X connect 22 0 50 0;
#X connect 22 0 51 0;
#X connect 22 0 49 0;
#X connect 23 0 22 0;
#X connect 24 0 69 0;
#X connect 25 0 27 0;
#X connect 26 0 28 0;
#X connect 26 0 52 0;
#X connect 26 0 54 0;
#X connect 26 0 53 0;
#X connect 27 0 26 0;
#X connect 28 0 69 0;
#X connect 29 0 31 0;
#X connect 30 0 32 0;
#X connect 30 0 55 0;
#X connect 30 0 57 0;
#X connect 30 0 56 0;
#X connect 31 0 30 0;
#X connect 32 0 69 0;
#X connect 33 0 35 0;
#X connect 34 0 36 0;
#X connect 34 0 59 0;
#X connect 34 0 60 0;
#X connect 34 0 58 0;
#X connect 35 0 34 0;
#X connect 36 0 69 0;
#X connect 37 0 19 0;
#X connect 38 0 20 0;
#X connect 39 0 20 0;
#X connect 40 0 19 0;
#X connect 41 0 18 0;
#X connect 42 0 20 0;
#X connect 43 0 18 0;
#X connect 44 0 19 0;
#X connect 45 0 18 0;
#X connect 46 0 18 0;
#X connect 47 0 20 0;
#X connect 48 0 19 0;
#X connect 49 0 18 0;
#X connect 50 0 19 0;
#X connect 51 0 20 0;
#X connect 52 0 18 0;
#X connect 53 0 19 0;
#X connect 54 0 20 0;
#X connect 55 0 18 0;
#X connect 56 0 19 0;
#X connect 57 0 20 0;
#X connect 58 0 18 0;
#X connect 59 0 19 0;
#X connect 60 0 20 0;
#X connect 61 0 2 0;
#X connect 62 0 1 0;
#X connect 63 0 9 0;
#X connect 64 0 13 0;
#X connect 65 0 21 0;
#X connect 66 0 25 0;
#X connect 67 0 29 0;
#X connect 68 0 33 0;
#X restore 521 309 pd octave_change;
#X floatatom 867 260 5 0 0 0 - - -, f 5;
#X obj 844 285 * 1;
#X obj 843 262 tgl 15 0 empty empty empty 17 7 0 10 -262144 -1 -1 0
1;
#X floatatom 844 314 5 0 0 0 - - -, f 5;
#X obj 885 238 demux;
#X msg 898 206 0;
#X msg 928 205 1;
#X floatatom 927 262 5 0 0 0 - - -, f 5;
#X obj 905 288 * 1;
#X obj 905 263 tgl 15 0 empty empty empty 17 7 0 10 -262144 -1 -1 0
1;
#X floatatom 905 311 5 0 0 0 - - -, f 5;
#X obj 747 337 expr 180*($f3 - $f1)/($f3 - $f2);
#X floatatom 742 365 5 0 0 0 - - -, f 5;
#N canvas 69 23 1125 752 octave_change_harmony 0;
#X floatatom 15 7 5 0 0 0 - - -, f 5;
#X floatatom 73 216 5 0 0 0 - - -, f 5;
#X obj 37 309 bng 15 250 50 0 empty empty empty 17 7 0 10 -262144 -1
-1;
#X obj 6 221 sel 1;
#X obj 7 197 change;
#X obj 77 271 sel 1;
#X obj 77 248 change;
#X obj 91 301 bng 15 250 50 0 empty empty empty 17 7 0 10 -262144 -1
-1;
#X floatatom 131 213 5 0 0 0 - - -, f 5;
#X obj 137 270 sel 1;
#X obj 135 245 change;
#X obj 149 298 bng 15 250 50 0 empty empty empty 17 7 0 10 -262144
-1 -1;
#X floatatom 251 214 5 0 0 0 - - -, f 5;
#X obj 257 271 sel 1;
#X obj 255 246 change;
#X obj 269 299 bng 15 250 50 0 empty empty empty 17 7 0 10 -262144
-1 -1;
#X obj 80 -25 inlet;
#X obj 30 548 outlet;
#X obj 184 552 outlet;
#X obj 319 556 outlet;
#X floatatom 353 224 5 0 0 0 - - -, f 5;
#X obj 359 281 sel 1;
#X obj 357 256 change;
#X obj 371 309 bng 15 250 50 0 empty empty empty 17 7 0 10 -262144
-1 -1;
#X floatatom 441 216 5 0 0 0 - - -, f 5;
#X obj 447 273 sel 1;
#X obj 445 248 change;
#X obj 459 301 bng 15 250 50 0 empty empty empty 17 7 0 10 -262144
-1 -1;
#X floatatom 545 214 5 0 0 0 - - -, f 5;
#X obj 551 271 sel 1;
#X obj 549 246 change;
#X obj 563 299 bng 15 250 50 0 empty empty empty 17 7 0 10 -262144
-1 -1;
#X floatatom 685 215 5 0 0 0 - - -, f 5;
#X obj 690 272 sel 1;
#X obj 689 247 change;
#X obj 703 300 bng 15 250 50 0 empty empty empty 17 7 0 10 -262144
-1 -1;
#X floatatom 784 214 5 0 0 0 - - -, f 5;
#X obj 790 271 sel 1;
#X obj 788 246 change;
#X obj 802 299 bng 15 250 50 0 empty empty empty 17 7 0 10 -262144
-1 -1;
#X floatatom 878 215 5 0 0 0 - - -, f 5;
#X obj 884 272 sel 1;
#X obj 882 247 change;
#X obj 896 300 bng 15 250 50 0 empty empty empty 17 7 0 10 -262144
-1 -1;
#X floatatom 1014 218 5 0 0 0 - - -, f 5;
#X obj 1020 275 sel 1;
#X obj 1018 250 change;
#X obj 1032 303 bng 15 250 50 0 empty empty empty 17 7 0 10 -262144
-1 -1;
#X floatatom 1109 217 5 0 0 0 - - -, f 5;
#X obj 1115 274 sel 1;
#X obj 1113 249 change;
#X obj 1127 302 bng 15 250 50 0 empty empty empty 17 7 0 10 -262144
-1 -1;
#X obj 442 550 outlet;
#X msg 8 383 65.41;
#X msg 54 379 69.3;
#X msg 98 379 82.41;
#X msg 141 381 98;
#X msg 8 420 69.3;
#X msg 57 418 73.42;
#X msg 106 416 87.31;
#X msg 151 417 103.83;
#X msg 8 451 73.42;
#X msg 58 451 77.78;
#X msg 111 452 92.5;
#X msg 116 487 98;
#X msg 155 452 110;
#X msg 157 487 116.54;
#X msg 9 488 77.78;
#X msg 60 489 82.41;
#X msg 212 381 82.41;
#X msg 257 382 87.31;
#X msg 302 384 103.83;
#X msg 355 383 123.47;
#X msg 348 446 138.59;
#X msg 218 417 87.31;
#X msg 268 417 92.5;
#X msg 262 449 98;
#X msg 311 420 110, f 4;
#X msg 298 448 116.54;
#X msg 355 420 130.81;
#X msg 571 383 155.56;
#X msg 218 452 92.5;
#X msg 219 484 98;
#X msg 256 482 103.83;
#X msg 484 386 110;
#X msg 307 483 123.47;
#X msg 518 384 130.81;
#X msg 356 482 146.83;
#X msg 521 416 138.59;
#X msg 574 418 164.8;
#X msg 581 447 174.61;
#X msg 434 384 103.83;
#X msg 433 415 110;
#X msg 470 415 116.54;
#X msg 477 449 123.47;
#X msg 528 447 146.83;
#X msg 532 482 155.56;
#X msg 587 478 185;
#X msg 429 448 116.54;
#X msg 429 481 123.47;
#X msg 480 482 130.81;
#X obj 7 147 expr $f1 < 15;
#X obj 57 175 expr ($f1 > 15) && ($f1 < 30);
#X obj 131 148 expr ($f1 > 30) && ($f1 < 45);
#X obj 256 174 expr ($f1 > 45) && ($f1 < 60);
#X obj 363 147 expr ($f1 > 60) && ($f1 < 75);
#X obj 470 173 expr ($f1 > 75) && ($f1 < 90);
#X obj 581 149 expr ($f1 > 90) && ($f1 < 105);
#X floatatom 9 173 5 0 0 0 - - -, f 5;
#X obj 683 173 expr ($f1 > 105) && ($f1 < 120);
#X obj 899 172 expr ($f1 > 135) && ($f1 < 150);
#X obj 1014 148 expr ($f1 > 150) && ($f1 < 165), f 32;
#X obj 1156 172 expr $f1> 165;
#X obj 797 146 expr ($f1 > 120) && ($f1 < 135);
#X obj 634 555 outlet;
#X connect 0 0 101 0;
#X connect 0 0 102 0;
#X connect 0 0 103 0;
#X connect 0 0 104 0;
#X connect 0 0 105 0;
#X connect 0 0 106 0;
#X connect 0 0 107 0;
#X connect 0 0 109 0;
#X connect 0 0 113 0;
#X connect 0 0 110 0;
#X connect 0 0 111 0;
#X connect 0 0 112 0;
#X connect 1 0 6 0;
#X connect 2 0 114 0;
#X connect 3 0 2 0;
#X connect 3 0 53 0;
#X connect 3 0 56 0;
#X connect 3 0 55 0;
#X connect 3 0 54 0;
#X connect 4 0 3 0;
#X connect 5 0 7 0;
#X connect 5 0 57 0;
#X connect 5 0 60 0;
#X connect 5 0 59 0;
#X connect 5 0 58 0;
#X connect 6 0 5 0;
#X connect 7 0 114 0;
#X connect 8 0 10 0;
#X connect 9 0 11 0;
#X connect 9 0 61 0;
#X connect 9 0 65 0;
#X connect 9 0 63 0;
#X connect 9 0 62 0;
#X connect 10 0 9 0;
#X connect 11 0 114 0;
#X connect 12 0 14 0;
#X connect 13 0 15 0;
#X connect 13 0 67 0;
#X connect 13 0 68 0;
#X connect 13 0 66 0;
#X connect 13 0 64 0;
#X connect 14 0 13 0;
#X connect 15 0 114 0;
#X connect 16 0 0 0;
#X connect 20 0 22 0;
#X connect 21 0 23 0;
#X connect 21 0 69 0;
#X connect 21 0 72 0;
#X connect 21 0 71 0;
#X connect 21 0 70 0;
#X connect 22 0 21 0;
#X connect 23 0 114 0;
#X connect 24 0 26 0;
#X connect 25 0 27 0;
#X connect 25 0 74 0;
#X connect 25 0 79 0;
#X connect 25 0 77 0;
#X connect 25 0 75 0;
#X connect 26 0 25 0;
#X connect 27 0 114 0;
#X connect 28 0 30 0;
#X connect 29 0 31 0;
#X connect 29 0 81 0;
#X connect 29 0 78 0;
#X connect 29 0 76 0;
#X connect 29 0 73 0;
#X connect 30 0 29 0;
#X connect 31 0 114 0;
#X connect 32 0 34 0;
#X connect 33 0 35 0;
#X connect 33 0 82 0;
#X connect 33 0 87 0;
#X connect 33 0 85 0;
#X connect 33 0 83 0;
#X connect 34 0 33 0;
#X connect 35 0 114 0;
#X connect 36 0 38 0;
#X connect 37 0 39 0;
#X connect 37 0 91 0;
#X connect 37 0 86 0;
#X connect 37 0 84 0;
#X connect 37 0 80 0;
#X connect 38 0 37 0;
#X connect 39 0 114 0;
#X connect 40 0 42 0;
#X connect 41 0 43 0;
#X connect 41 0 89 0;
#X connect 41 0 93 0;
#X connect 41 0 92 0;
#X connect 41 0 88 0;
#X connect 42 0 41 0;
#X connect 43 0 114 0;
#X connect 44 0 46 0;
#X connect 45 0 47 0;
#X connect 45 0 90 0;
#X connect 45 0 98 0;
#X connect 45 0 95 0;
#X connect 45 0 94 0;
#X connect 46 0 45 0;
#X connect 47 0 114 0;
#X connect 48 0 50 0;
#X connect 49 0 51 0;
#X connect 49 0 97 0;
#X connect 49 0 100 0;
#X connect 49 0 99 0;
#X connect 49 0 96 0;
#X connect 50 0 49 0;
#X connect 51 0 114 0;
#X connect 53 0 17 0;
#X connect 54 0 18 0;
#X connect 55 0 19 0;
#X connect 56 0 52 0;
#X connect 57 0 17 0;
#X connect 58 0 18 0;
#X connect 59 0 19 0;
#X connect 60 0 52 0;
#X connect 61 0 17 0;
#X connect 62 0 18 0;
#X connect 63 0 19 0;
#X connect 64 0 19 0;
#X connect 65 0 52 0;
#X connect 66 0 52 0;
#X connect 67 0 17 0;
#X connect 68 0 18 0;
#X connect 69 0 17 0;
#X connect 70 0 18 0;
#X connect 71 0 19 0;
#X connect 72 0 52 0;
#X connect 73 0 52 0;
#X connect 74 0 17 0;
#X connect 75 0 18 0;
#X connect 76 0 18 0;
#X connect 77 0 19 0;
#X connect 78 0 19 0;
#X connect 79 0 52 0;
#X connect 80 0 52 0;
#X connect 81 0 17 0;
#X connect 82 0 17 0;
#X connect 83 0 18 0;
#X connect 84 0 18 0;
#X connect 85 0 19 0;
#X connect 86 0 19 0;
#X connect 87 0 52 0;
#X connect 88 0 19 0;
#X connect 89 0 52 0;
#X connect 90 0 52 0;
#X connect 91 0 17 0;
#X connect 92 0 17 0;
#X connect 93 0 18 0;
#X connect 94 0 18 0;
#X connect 95 0 19 0;
#X connect 96 0 19 0;
#X connect 97 0 52 0;
#X connect 98 0 17 0;
#X connect 99 0 17 0;
#X connect 100 0 18 0;
#X connect 101 0 108 0;
#X connect 102 0 1 0;
#X connect 103 0 8 0;
#X connect 104 0 12 0;
#X connect 105 0 20 0;
#X connect 106 0 24 0;
#X connect 107 0 28 0;
#X connect 108 0 4 0;
#X connect 109 0 32 0;
#X connect 110 0 40 0;
#X connect 111 0 44 0;
#X connect 112 0 48 0;
#X connect 113 0 36 0;
#X restore 369 316 pd octave_change_harmony;
#N canvas 176 76 927 344 ramp_octave 0;
#X obj 128 81 change;
#X obj 128 102 sel 1;
#X floatatom 145 170 5 0 0 0 - - -, f 5;
#X obj 130 145 + 1;
#X obj 122 220 line;
#X obj 128 123 tgl 15 0 empty empty empty 17 7 0 10 -262144 -1 -1 0
1;
#X obj 14 37 inlet;
#X obj 454 263 *;
#X obj 380 264 *;
#X obj 309 269 *;
#X obj 237 268 *;
#X obj 165 264 *;
#X obj 88 266 *;
#X obj 20 268 *;
#X obj 17 305 outlet;
#X obj 88 305 outlet;
#X obj 163 304 outlet;
#X obj 234 304 outlet;
#X obj 304 303 outlet;
#X obj 382 300 outlet;
#X obj 456 303 outlet;
#X obj 122 196 pack 0 500;
#X msg 90 167 1;
#X obj 58 113 loadbang;
#X obj 181 39 inlet;
#X obj 223 41 inlet;
#X obj 266 44 inlet;
#X obj 308 46 inlet;
#X obj 350 46 inlet;
#X obj 392 48 inlet;
#X obj 438 50 inlet;
#X obj 483 48 inlet;
#X obj 525 50 inlet;
#X connect 0 0 1 0;
#X connect 1 0 5 0;
#X connect 3 0 2 0;
#X connect 3 0 21 0;
#X connect 4 0 13 0;
#X connect 4 0 12 0;
#X connect 4 0 11 0;
#X connect 4 0 10 0;
#X connect 4 0 9 0;
#X connect 4 0 8 0;
#X connect 4 0 7 0;
#X connect 5 0 3 0;
#X connect 6 0 0 0;
#X connect 7 0 20 0;
#X connect 8 0 19 0;
#X connect 9 0 18 0;
#X connect 10 0 17 0;
#X connect 11 0 16 0;
#X connect 12 0 15 0;
#X connect 13 0 14 0;
#X connect 21 0 4 0;
#X connect 22 0 21 0;
#X connect 23 0 22 0;
#X connect 24 0 13 1;
#X connect 25 0 12 1;
#X connect 26 0 11 1;
#X connect 27 0 10 1;
#X connect 28 0 9 1;
#X connect 29 0 8 1;
#X connect 30 0 7 1;
#X connect 31 0 13 0;
#X connect 31 0 11 0;
#X connect 31 0 12 0;
#X connect 31 0 10 0;
#X connect 32 0 9 0;
#X connect 32 0 8 0;
#X connect 32 0 7 0;
#X restore 348 392 pd ramp_octave;
#X obj 456 344 delay 5;
#X obj 461 365 bng 15 250 50 0 empty empty empty 17 7 0 10 -262144
-1 -1;
#X obj 548 389 bng 15 250 50 0 empty empty empty 17 7 0 10 -262144
-1 -1;
#N canvas 528 45 802 300 cool-FM-set 0;
#X obj 377 112 cool-FM-MG;
#X obj 15 115 cool-FM-MG;
#X obj 159 115 cool-FM-MG;
#X obj 448 108 cool-FM-MG;
#X obj 88 117 cool-FM-MG;
#X obj 233 113 cool-FM-MG;
#X obj 305 112 cool-FM-MG;
#X obj 716 47 inlet;
#X obj 661 47 inlet;
#X obj 604 46 inlet;
#X obj 29 149 +~;
#X obj 30 176 +~;
#X obj 30 203 +~;
#X obj 29 230 +~;
#X obj 31 256 +~;
#X obj 30 282 +~;
#X obj 133 295 outlet~;
#X obj 83 37 inlet;
#X obj 44 36 inlet;
#X obj 5 36 inlet;
#X obj 201 39 inlet;
#X obj 162 38 inlet;
#X obj 123 38 inlet;
#X obj 317 40 inlet;
#X obj 278 39 inlet;
#X obj 239 39 inlet;
#X obj 357 40 inlet;
#X obj 438 40 inlet;
#X obj 399 39 inlet;
#X obj 478 40 inlet;
#X obj 518 41 inlet;
#X connect 0 0 14 1;
#X connect 1 0 10 0;
#X connect 2 0 11 1;
#X connect 3 0 15 1;
#X connect 4 0 10 1;
#X connect 5 0 12 1;
#X connect 6 0 13 1;
#X connect 7 0 3 4;
#X connect 7 0 1 4;
#X connect 7 0 4 4;
#X connect 7 0 2 4;
#X connect 7 0 5 4;
#X connect 7 0 6 4;
#X connect 7 0 0 4;
#X connect 8 0 3 3;
#X connect 8 0 1 3;
#X connect 8 0 4 3;
#X connect 8 0 2 3;
#X connect 8 0 5 3;
#X connect 8 0 6 3;
#X connect 8 0 0 3;
#X connect 9 0 6 2;
#X connect 9 0 3 2;
#X connect 9 0 0 2;
#X connect 9 0 5 2;
#X connect 9 0 2 2;
#X connect 9 0 4 2;
#X connect 9 0 1 2;
#X connect 10 0 11 0;
#X connect 11 0 12 0;
#X connect 12 0 13 0;
#X connect 13 0 14 0;
#X connect 14 0 15 0;
#X connect 15 0 16 0;
#X connect 17 0 2 0;
#X connect 18 0 4 0;
#X connect 19 0 1 0;
#X connect 20 0 0 0;
#X connect 21 0 6 0;
#X connect 22 0 5 0;
#X connect 23 0 4 1;
#X connect 24 0 1 1;
#X connect 25 0 3 0;
#X connect 26 0 2 1;
#X connect 27 0 6 1;
#X connect 28 0 5 1;
#X connect 29 0 0 1;
#X connect 30 0 3 1;
#X restore 56 466 pd cool-FM-set;
#X floatatom 742 438 5 0 0 0 - - -, f 5;
#X floatatom 785 495 5 0 0 0 - - -, f 5;
#X obj 762 520 * 1;
#X obj 761 497 tgl 15 0 empty empty empty 17 7 0 10 -262144 -1 -1 0
1;
#X floatatom 762 549 5 0 0 0 - - -, f 5;
#X obj 796 463 demux;
#X msg 809 431 0;
#X msg 839 430 1;
#X floatatom 845 497 5 0 0 0 - - -, f 5;
#X obj 823 523 * 1;
#X obj 823 498 tgl 15 0 empty empty empty 17 7 0 10 -262144 -1 -1 0
1;
#X floatatom 823 546 5 0 0 0 - - -, f 5;
#X obj 666 583 expr 180*($f3 - $f1)/($f3 - $f2);
#X floatatom 666 611 5 0 0 0 - - -, f 5;
#X obj 549 358 delay 1;
#N canvas 671 122 682 524 calib_fingers 0;
#X floatatom 48 115 5 0 0 0 - - -, f 5;
#X floatatom 142 161 5 0 0 0 - - -, f 5;
#X obj 119 186 * 1;
#X obj 118 163 tgl 15 0 empty empty empty 17 7 0 10 -262144 -1 -1 0
1;
#X floatatom 86 223 5 0 0 0 - - -, f 5;
#X obj 160 134 demux;
#X msg 169 110 0;
#X msg 199 109 1;
#X floatatom 202 163 5 0 0 0 - - -, f 5;
#X obj 180 189 * 1;
#X obj 180 164 tgl 15 0 empty empty empty 17 7 0 10 -262144 -1 -1 0
1;
#X floatatom 176 217 5 0 0 0 - - -, f 5;
#X floatatom 17 279 5 0 0 0 - - -, f 5;
#X obj 15 250 expr 1*($f3 - $f1)/($f3 - $f2);
#X obj 41 68 inlet;
#X obj 55 162 delay 10;
#X obj 111 68 inlet;
#X obj 16 301 outlet;
#X floatatom 251 117 5 0 0 0 - - -, f 5;
#X floatatom 345 163 5 0 0 0 - - -, f 5;
#X obj 322 188 * 1;
#X obj 321 165 tgl 15 0 empty empty empty 17 7 0 10 -262144 -1 -1 0
1;
#X floatatom 295 228 5 0 0 0 - - -, f 5;
#X obj 363 136 demux;
#X msg 372 112 0;
#X msg 402 111 1;
#X floatatom 405 165 5 0 0 0 - - -, f 5;
#X obj 383 191 * 1;
#X obj 383 166 tgl 15 0 empty empty empty 17 7 0 10 -262144 -1 -1 0
1;
#X floatatom 379 219 5 0 0 0 - - -, f 5;
#X floatatom 220 281 5 0 0 0 - - -, f 5;
#X obj 218 252 expr 1*($f3 - $f1)/($f3 - $f2);
#X obj 244 70 inlet;
#X obj 258 164 delay 10;
#X obj 314 70 inlet;
#X obj 219 303 outlet;
#X floatatom 450 119 5 0 0 0 - - -, f 5;
#X floatatom 544 165 5 0 0 0 - - -, f 5;
#X obj 521 190 * 1;
#X obj 520 167 tgl 15 0 empty empty empty 17 7 0 10 -262144 -1 -1 0
1;
#X floatatom 513 220 5 0 0 0 - - -, f 5;
#X obj 562 138 demux;
#X msg 571 114 0;
#X msg 601 113 1;
#X floatatom 604 167 5 0 0 0 - - -, f 5;
#X obj 582 193 * 1;
#X obj 582 168 tgl 15 0 empty empty empty 17 7 0 10 -262144 -1 -1 0
1;
#X floatatom 578 221 5 0 0 0 - - -, f 5;
#X floatatom 419 283 5 0 0 0 - - -, f 5;
#X obj 417 254 expr 1*($f3 - $f1)/($f3 - $f2);
#X obj 443 72 inlet;
#X obj 457 166 delay 10;
#X obj 513 72 inlet;
#X obj 418 305 outlet;
#X obj 625 62 inlet;
#X msg 65 199 730.8;
#X msg 130 209 372.4;
#X msg 263 195 655.9;
#X msg 335 209 299.8;
#X msg 465 213 423.5;
#X msg 548 205 0;
#X obj 165 38 loadbang;
#X connect 0 0 5 0;
#X connect 0 0 13 0;
#X connect 1 0 2 1;
#X connect 2 0 4 0;
#X connect 3 0 2 0;
#X connect 3 0 15 0;
#X connect 4 0 13 1;
#X connect 5 0 1 0;
#X connect 5 1 8 0;
#X connect 6 0 5 1;
#X connect 7 0 5 1;
#X connect 8 0 9 1;
#X connect 9 0 11 0;
#X connect 10 0 9 0;
#X connect 11 0 13 2;
#X connect 12 0 17 0;
#X connect 13 0 12 0;
#X connect 14 0 0 0;
#X connect 15 0 7 0;
#X connect 16 0 3 0;
#X connect 18 0 23 0;
#X connect 18 0 31 0;
#X connect 19 0 20 1;
#X connect 20 0 22 0;
#X connect 21 0 20 0;
#X connect 21 0 33 0;
#X connect 22 0 31 1;
#X connect 23 0 19 0;
#X connect 23 1 26 0;
#X connect 24 0 23 1;
#X connect 25 0 23 1;
#X connect 26 0 27 1;
#X connect 27 0 29 0;
#X connect 28 0 27 0;
#X connect 29 0 31 2;
#X connect 30 0 35 0;
#X connect 31 0 30 0;
#X connect 32 0 18 0;
#X connect 33 0 25 0;
#X connect 34 0 21 0;
#X connect 36 0 41 0;
#X connect 36 0 49 0;
#X connect 37 0 38 1;
#X connect 38 0 40 0;
#X connect 39 0 38 0;
#X connect 39 0 51 0;
#X connect 40 0 49 1;
#X connect 41 0 37 0;
#X connect 41 1 44 0;
#X connect 42 0 41 1;
#X connect 43 0 41 1;
#X connect 44 0 45 1;
#X connect 45 0 47 0;
#X connect 46 0 45 0;
#X connect 47 0 49 2;
#X connect 48 0 53 0;
#X connect 49 0 48 0;
#X connect 50 0 36 0;
#X connect 51 0 43 0;
#X connect 52 0 39 0;
#X connect 54 0 42 0;
#X connect 54 0 24 0;
#X connect 54 0 6 0;
#X connect 55 0 4 0;
#X connect 56 0 11 0;
#X connect 57 0 22 0;
#X connect 58 0 29 0;
#X connect 59 0 40 0;
#X connect 60 0 47 0;
#X connect 61 0 55 0;
#X connect 61 0 60 0;
#X connect 61 0 59 0;
#X connect 61 0 58 0;
#X connect 61 0 57 0;
#X connect 61 0 56 0;
#X restore 360 113 pd calib_fingers;
#X obj 374 90 bng 15 250 50 0 empty empty empty 17 7 0 10 -262144 -1
-1;
#X obj 403 87 bng 15 250 50 0 empty empty empty 17 7 0 10 -262144 -1
-1;
#X obj 433 87 bng 15 250 50 0 empty empty empty 17 7 0 10 -262144 -1
-1;
#X obj 747 663 tabwrite~ right-hand;
#N canvas 0 22 450 300 (subpatch) 0;
#X array right-hand 100 float 3 black black;
#A 0 118.689 118.689 118.689 118.689 118.689 118.689 118.689 118.689
118.689 118.689 118.689 118.689 118.689 118.689 118.689 118.689 118.689
118.689 118.689 118.689 118.689 118.689 118.689 118.689 118.689 118.689
118.689 118.689 118.689 118.689 118.689 118.689 118.689 118.689 118.689
118.689 118.689 118.689 118.689 118.689 118.689 118.689 118.689 118.689
118.689 118.689 118.689 118.689 118.689 118.689 118.689 118.689 118.689
118.689 118.689 118.689 118.689 118.689 118.689 118.689 118.689 118.689
118.689 118.689 118.689 118.689 118.689 118.689 118.689 118.689 118.689
118.689 118.689 118.689 118.689 118.689 118.689 118.689 118.689 118.689
118.689 118.689 118.689 118.689 118.689 118.689 118.689 118.689 118.689
118.689 118.689 118.689 118.689 118.689 118.689 118.689 118.689 118.689
118.689 118.689;
#X coords 0 180 100 0 200 500 1;
#X restore 1363 130 graph;
#X obj 747 638 metro 100;
#X obj 748 614 tgl 15 0 empty empty empty 17 7 0 10 -262144 -1 -1 0
1;
#X text 1314 496 --------;
#X text 1314 434 --------;
#X text 1315 559 --------;
#X text 1313 371 --------;
#X text 1314 309 --------;
#X text 1313 247 --------;
#X text 1313 183 --------;
#N canvas 0 22 450 300 (subpatch) 0;
#X array left-hand 100 float 3 black black;
#A 0 124.659 124.659 124.659 124.659 124.659 124.659 124.659 124.659
124.659 124.659 124.659 124.659 124.659 124.659 124.659 124.659 124.659
124.659 124.659 124.659 124.659 124.659 124.659 124.659 124.659 124.659
124.659 124.659 124.659 124.659 124.659 124.659 124.659 124.659 124.659
124.659 124.659 124.659 124.659 124.659 124.659 124.659 124.659 124.659
124.659 124.659 124.659 124.659 124.659 124.659 124.659 124.659 124.659
124.659 124.659 124.659 124.659 124.659 124.659 124.659 124.659 124.659
124.659 124.659 124.659 124.659 124.659 124.659 124.659 124.659 124.659
124.659 124.659 124.659 124.659 124.659 124.659 124.659 124.659 124.659
124.659 124.659 124.659 124.659 124.659 124.659 124.659 124.659 124.659
124.659 124.659 124.659 124.659 124.659 124.659 124.659 124.659 124.659
124.659 124.659;
#X coords 0 180 100 0 200 500 1;
#X restore 1089 130 graph;
#X obj 823 402 tabwrite~ left-hand;
#X obj 823 379 metro 100;
#X obj 823 360 tgl 15 0 empty empty empty 17 7 0 10 -262144 -1 -1 0
1;
#X text 1039 580 ~~~~~~~~;
#X text 1038 538 ~~~~~~~~;
#X text 1038 496 ~~~~~~~~;
#X text 1038 454 ~~~~~~~~;
#X text 1038 412 ~~~~~~~~;
#X text 1040 370 ~~~~~~~~;
#X text 1038 328 ~~~~~~~~;
#X text 1038 286 ~~~~~~~~;
#X text 1039 244 ~~~~~~~~;
#X text 1038 202 ~~~~~~~~;
#X text 1037 160 ~~~~~~~~;
#X obj 560 598 cnv 15 100 60 empty empty empty 20 12 0 14 -233017 -66577
0;
#X text 1027 601 C C# E G;
#X text 1027 562 C# D F G#;
#X text 1027 517 D D# F# A;
#X text 1025 474 D# E G A#;
#X text 1030 432 E F G# B;
#X text 1027 392 F F# A C;
#X text 1023 351 F# G A# C#;
#X text 1029 311 G G# B D;
#X text 1026 269 G# A C D#;
#X text 1025 225 A A# C# E;
#X text 1030 184 A# B D F;
#X text 1027 145 B C D# F#;
#X text 1310 593 C C# D;
#X text 1309 533 D# E F;
#X text 1308 478 F# G G#;
#X text 1311 414 A A# B;
#X text 1311 347 C C# D;
#X text 1310 286 D# E F;
#X text 1311 222 F# G G#;
#X text 1315 157 A A# B;
#N canvas 370 107 1050 659 calib_left_fingers 1;
#X floatatom 53 88 5 0 0 0 - - -, f 5;
#X floatatom 147 134 5 0 0 0 - - -, f 5;
#X obj 124 159 * 1;
#X obj 123 136 tgl 15 0 empty empty empty 17 7 0 10 -262144 -1 -1 0
1;
#X floatatom 91 196 5 0 0 0 - - -, f 5;
#X obj 165 107 demux;
#X msg 174 83 0;
#X msg 204 82 1;
#X floatatom 207 136 5 0 0 0 - - -, f 5;
#X obj 185 162 * 1;
#X obj 185 137 tgl 15 0 empty empty empty 17 7 0 10 -262144 -1 -1 0
1;
#X floatatom 181 190 5 0 0 0 - - -, f 5;
#X floatatom 22 252 5 0 0 0 - - -, f 5;
#X obj 20 223 expr 1*($f3 - $f1)/($f3 - $f2);
#X obj 46 41 inlet;
#X obj 60 135 delay 10;
#X obj 21 274 outlet;
#X floatatom 274 85 5 0 0 0 - - -, f 5;
#X floatatom 368 131 5 0 0 0 - - -, f 5;
#X obj 345 156 * 1;
#X obj 344 133 tgl 15 0 empty empty empty 17 7 0 10 -262144 -1 -1 0
1;
#X floatatom 312 193 5 0 0 0 - - -, f 5;
#X obj 386 104 demux;
#X msg 395 80 0;
#X msg 425 79 1;
#X floatatom 428 133 5 0 0 0 - - -, f 5;
#X obj 406 159 * 1;
#X obj 406 134 tgl 15 0 empty empty empty 17 7 0 10 -262144 -1 -1 0
1;
#X floatatom 402 187 5 0 0 0 - - -, f 5;
#X floatatom 243 249 5 0 0 0 - - -, f 5;
#X obj 241 220 expr 1*($f3 - $f1)/($f3 - $f2);
#X obj 267 38 inlet;
#X obj 281 132 delay 10;
#X obj 242 271 outlet;
#X floatatom 472 82 5 0 0 0 - - -, f 5;
#X floatatom 566 128 5 0 0 0 - - -, f 5;
#X obj 543 153 * 1;
#X obj 542 130 tgl 15 0 empty empty empty 17 7 0 10 -262144 -1 -1 0
1;
#X floatatom 510 190 5 0 0 0 - - -, f 5;
#X obj 584 101 demux;
#X msg 593 77 0;
#X msg 623 76 1;
#X floatatom 626 130 5 0 0 0 - - -, f 5;
#X obj 604 156 * 1;
#X obj 604 131 tgl 15 0 empty empty empty 17 7 0 10 -262144 -1 -1 0
1;
#X floatatom 600 184 5 0 0 0 - - -, f 5;
#X floatatom 441 246 5 0 0 0 - - -, f 5;
#X obj 439 217 expr 1*($f3 - $f1)/($f3 - $f2);
#X obj 465 35 inlet;
#X obj 479 129 delay 10;
#X obj 440 268 outlet;
#X floatatom 668 81 5 0 0 0 - - -, f 5;
#X floatatom 762 127 5 0 0 0 - - -, f 5;
#X obj 739 152 * 1;
#X obj 738 129 tgl 15 0 empty empty empty 17 7 0 10 -262144 -1 -1 0
1;
#X floatatom 706 189 5 0 0 0 - - -, f 5;
#X obj 780 100 demux;
#X msg 789 76 0;
#X msg 819 75 1;
#X floatatom 822 129 5 0 0 0 - - -, f 5;
#X obj 800 155 * 1;
#X obj 800 130 tgl 15 0 empty empty empty 17 7 0 10 -262144 -1 -1 0
1;
#X floatatom 796 183 5 0 0 0 - - -, f 5;
#X floatatom 637 245 5 0 0 0 - - -, f 5;
#X obj 635 216 expr 1*($f3 - $f1)/($f3 - $f2);
#X obj 661 34 inlet;
#X obj 675 128 delay 10;
#X obj 636 267 outlet;
#X msg 685 165 730.8;
#X msg 750 175 372.4;
#X msg 70 172 487.2;
#X msg 135 182 185.2;
#X msg 291 169 688.8;
#X msg 356 179 427.3;
#X msg 489 166 560.5;
#X msg 554 176 334.6;
#X obj 171 33 loadbang;
#X connect 0 0 5 0;
#X connect 0 0 13 0;
#X connect 1 0 2 1;
#X connect 2 0 4 0;
#X connect 3 0 2 0;
#X connect 3 0 15 0;
#X connect 4 0 13 1;
#X connect 5 0 1 0;
#X connect 5 1 8 0;
#X connect 6 0 5 1;
#X connect 7 0 5 1;
#X connect 8 0 9 1;
#X connect 9 0 11 0;
#X connect 10 0 9 0;
#X connect 11 0 13 2;
#X connect 12 0 16 0;
#X connect 13 0 12 0;
#X connect 14 0 0 0;
#X connect 15 0 7 0;
#X connect 17 0 22 0;
#X connect 17 0 30 0;
#X connect 18 0 19 1;
#X connect 19 0 21 0;
#X connect 20 0 19 0;
#X connect 20 0 32 0;
#X connect 21 0 30 1;
#X connect 22 0 18 0;
#X connect 22 1 25 0;
#X connect 23 0 22 1;
#X connect 24 0 22 1;
#X connect 25 0 26 1;
#X connect 26 0 28 0;
#X connect 27 0 26 0;
#X connect 28 0 30 2;
#X connect 29 0 33 0;
#X connect 30 0 29 0;
#X connect 31 0 17 0;
#X connect 32 0 24 0;
#X connect 34 0 39 0;
#X connect 34 0 47 0;
#X connect 35 0 36 1;
#X connect 36 0 38 0;
#X connect 37 0 36 0;
#X connect 37 0 49 0;
#X connect 38 0 47 1;
#X connect 39 0 35 0;
#X connect 39 1 42 0;
#X connect 40 0 39 1;
#X connect 41 0 39 1;
#X connect 42 0 43 1;
#X connect 43 0 45 0;
#X connect 44 0 43 0;
#X connect 45 0 47 2;
#X connect 46 0 50 0;
#X connect 47 0 46 0;
#X connect 48 0 34 0;
#X connect 49 0 41 0;
#X connect 51 0 56 0;
#X connect 51 0 64 0;
#X connect 52 0 53 1;
#X connect 53 0 55 0;
#X connect 54 0 53 0;
#X connect 54 0 66 0;
#X connect 55 0 64 1;
#X connect 56 0 52 0;
#X connect 56 1 59 0;
#X connect 57 0 56 1;
#X connect 58 0 56 1;
#X connect 59 0 60 1;
#X connect 60 0 62 0;
#X connect 61 0 60 0;
#X connect 62 0 64 2;
#X connect 63 0 67 0;
#X connect 64 0 63 0;
#X connect 65 0 51 0;
#X connect 66 0 58 0;
#X connect 68 0 55 0;
#X connect 69 0 62 0;
#X connect 70 0 4 0;
#X connect 71 0 11 0;
#X connect 72 0 21 0;
#X connect 73 0 28 0;
#X connect 74 0 38 0;
#X connect 75 0 45 0;
#X connect 76 0 70 0;
#X connect 76 0 75 0;
#X connect 76 0 74 0;
#X connect 76 0 73 0;
#X connect 76 0 72 0;
#X connect 76 0 71 0;
#X restore 94 161 pd calib_left_fingers;
#N canvas 0 22 450 300 log 0;
#X obj 122 130 exp;
#X obj 122 156 - 1;
#X floatatom 122 179 5 0 0 0 - - -, f 5;
#X floatatom 122 224 5 0 0 0 - - -, f 5;
#X obj 122 202 expr 1*(0 - $f1)/(-1.718);
#X obj 70 149 log;
#X floatatom 70 243 5 0 0 0 - - -, f 5;
#X obj 69 83 expr 1 - $f1*(1 - 2.72);
#X floatatom 70 106 11 0 0 0 - - -, f 11;
#X floatatom 75 40 5 0 0 0 - - -, f 5;
#X obj 70 173 + 4;
#X obj 70 196 / 4;
#X obj 70 128 + 0.022;
#X connect 0 0 1 0;
#X connect 1 0 2 0;
#X connect 2 0 4 0;
#X connect 4 0 3 0;
#X connect 5 0 10 0;
#X connect 7 0 8 0;
#X connect 8 0 12 0;
#X connect 9 0 7 0;
#X connect 9 0 0 0;
#X connect 10 0 11 0;
#X connect 11 0 6 0;
#X connect 12 0 5 0;
#X restore 45 582 pd log;
#X floatatom 286 154 5 0 0 0 - - -, f 5;
#X msg 718 530 74.11;
#X msg 863 525 -76.9;
#X connect 0 0 94 14;
#X connect 1 0 2 0;
#X connect 1 0 94 15;
#X connect 4 0 3 0;
#X connect 4 0 3 1;
#X connect 5 0 4 1;
#X connect 6 0 22 0;
#X connect 6 0 161 3;
#X connect 7 0 23 0;
#X connect 8 0 24 0;
#X connect 9 0 25 0;
#X connect 10 0 26 0;
#X connect 11 0 27 0;
#X connect 12 0 28 0;
#X connect 13 0 29 0;
#X connect 14 0 30 0;
#X connect 15 0 31 0;
#X connect 16 0 32 0;
#X connect 17 0 33 0;
#X connect 18 0 34 0;
#X connect 19 0 35 0;
#X connect 20 0 36 0;
#X connect 21 0 37 0;
#X connect 22 0 68 0;
#X connect 23 0 57 0;
#X connect 23 0 161 2;
#X connect 24 0 61 0;
#X connect 24 0 161 1;
#X connect 25 0 59 0;
#X connect 25 0 161 0;
#X connect 26 0 55 0;
#X connect 28 0 110 0;
#X connect 29 0 110 2;
#X connect 30 0 110 4;
#X connect 32 0 46 0;
#X connect 33 0 53 0;
#X connect 34 0 80 0;
#X connect 34 0 87 0;
#X connect 37 0 71 0;
#X connect 38 0 39 0;
#X connect 38 1 39 1;
#X connect 40 0 43 0;
#X connect 41 0 43 0;
#X connect 42 0 43 0;
#X connect 43 0 38 0;
#X connect 44 0 45 0;
#X connect 44 0 164 0;
#X connect 44 0 165 0;
#X connect 45 0 1 0;
#X connect 46 0 94 16;
#X connect 47 0 94 7;
#X connect 48 0 94 8;
#X connect 49 0 94 9;
#X connect 50 0 94 10;
#X connect 52 0 1 0;
#X connect 53 0 52 0;
#X connect 55 0 56 0;
#X connect 56 0 51 0;
#X connect 57 0 58 0;
#X connect 58 0 54 0;
#X connect 59 0 60 0;
#X connect 61 0 62 0;
#X connect 63 0 163 0;
#X connect 64 0 94 11;
#X connect 65 0 94 12;
#X connect 66 0 94 13;
#X connect 68 0 63 0;
#X connect 69 0 70 0;
#X connect 69 0 72 0;
#X connect 71 0 69 0;
#X connect 72 0 0 0;
#X connect 73 0 67 0;
#X connect 73 0 90 0;
#X connect 74 0 95 0;
#X connect 75 0 90 5;
#X connect 75 1 90 6;
#X connect 75 2 90 7;
#X connect 75 3 109 0;
#X connect 76 0 77 1;
#X connect 77 0 79 0;
#X connect 78 0 77 0;
#X connect 79 0 87 1;
#X connect 80 0 76 0;
#X connect 80 1 83 0;
#X connect 81 0 80 1;
#X connect 82 0 80 1;
#X connect 83 0 84 1;
#X connect 84 0 86 0;
#X connect 85 0 84 0;
#X connect 86 0 87 2;
#X connect 87 0 88 0;
#X connect 88 0 89 0;
#X connect 88 0 126 0;
#X connect 89 0 90 1;
#X connect 89 1 90 2;
#X connect 89 2 90 3;
#X connect 89 3 90 4;
#X connect 89 4 91 0;
#X connect 90 0 94 0;
#X connect 90 1 94 1;
#X connect 90 2 94 2;
#X connect 90 3 94 3;
#X connect 90 4 94 4;
#X connect 90 5 94 5;
#X connect 90 6 94 6;
#X connect 91 0 92 0;
#X connect 92 0 90 8;
#X connect 93 0 90 9;
#X connect 94 0 4 0;
#X connect 95 0 100 0;
#X connect 95 0 107 0;
#X connect 96 0 97 1;
#X connect 97 0 99 0;
#X connect 98 0 97 0;
#X connect 99 0 107 1;
#X connect 100 0 96 0;
#X connect 100 1 103 0;
#X connect 101 0 100 1;
#X connect 102 0 100 1;
#X connect 103 0 104 1;
#X connect 104 0 106 0;
#X connect 105 0 104 0;
#X connect 106 0 107 2;
#X connect 107 0 108 0;
#X connect 108 0 75 0;
#X connect 108 0 114 0;
#X connect 109 0 93 0;
#X connect 110 0 64 0;
#X connect 110 1 65 0;
#X connect 110 2 66 0;
#X connect 111 0 110 1;
#X connect 112 0 110 3;
#X connect 113 0 110 5;
#X connect 116 0 114 0;
#X connect 117 0 116 0;
#X connect 127 0 126 0;
#X connect 128 0 127 0;
#X connect 161 0 47 0;
#X connect 161 1 48 0;
#X connect 161 2 49 0;
#X connect 161 3 50 0;
#X connect 164 0 99 0;
#X connect 165 0 106 0;
#X coords 0 0 1 1 85 60 0;
